<svg width="117" height="117" viewBox="0 0 117 117" fill="none" xmlns="http://www.w3.org/2000/svg">
<g clip-path="url(#clip0_3_5706)">
<path d="M98.9693 21.4895C91.5496 18.0851 83.5931 15.5768 75.2742 14.1402C75.1227 14.1125 74.9713 14.1818 74.8933 14.3204C73.8701 16.1404 72.7367 18.5147 71.9429 20.3809C62.9953 19.0413 54.0936 19.0413 45.3295 20.3809C44.5357 18.4731 43.361 16.1404 42.3332 14.3204C42.2552 14.1864 42.1038 14.1171 41.9523 14.1402C33.6379 15.5722 25.6814 18.0805 18.2572 21.4895C18.193 21.5172 18.1379 21.5634 18.1012 21.6235C3.00956 44.1702 -1.12469 66.1626 0.903433 87.8825C0.91261 87.9887 0.972261 88.0904 1.05485 88.155C11.0119 95.4674 20.657 99.9065 30.1231 102.849C30.2745 102.895 30.4351 102.84 30.5315 102.715C32.7707 99.6571 34.7667 96.4328 36.4782 93.0423C36.5792 92.8436 36.4828 92.608 36.2763 92.5295C33.1103 91.3285 30.0956 89.8642 27.1957 88.2012C26.9662 88.0673 26.9479 87.7393 27.1589 87.5823C27.7692 87.1249 28.3795 86.6492 28.9622 86.1688C29.0678 86.081 29.2146 86.0625 29.3385 86.1179C48.39 94.8161 69.0154 94.8161 87.8421 86.1179C87.966 86.0579 88.1128 86.0764 88.223 86.1641C88.8057 86.6445 89.416 87.1249 90.0308 87.5823C90.2419 87.7393 90.2281 88.0673 89.9987 88.2012C87.0988 89.8965 84.0841 91.3285 80.9134 92.5249C80.707 92.6034 80.6152 92.8436 80.7161 93.0423C82.4644 96.4282 84.4604 99.6524 86.6583 102.71C86.75 102.84 86.9152 102.895 87.0667 102.849C96.5787 99.9065 106.224 95.4674 116.181 88.155C116.268 88.0904 116.323 87.9934 116.332 87.8871C118.76 62.7767 112.267 40.9644 99.1207 21.6281C99.0886 21.5634 99.0335 21.5172 98.9693 21.4895ZM39.3231 74.6575C33.5875 74.6575 28.8613 69.3915 28.8613 62.9245C28.8613 56.4575 33.4957 51.1915 39.3231 51.1915C45.1964 51.1915 49.8767 56.5037 49.7849 62.9245C49.7849 69.3915 45.1505 74.6575 39.3231 74.6575ZM78.0043 74.6575C72.2687 74.6575 67.5425 69.3915 67.5425 62.9245C67.5425 56.4575 72.1769 51.1915 78.0043 51.1915C83.8776 51.1915 88.5579 56.5037 88.4661 62.9245C88.4661 69.3915 83.8776 74.6575 78.0043 74.6575Z" fill="#5865F2"/>
</g>
<defs>
<clipPath id="clip0_3_5706">
<rect width="116.411" height="116.411" fill="white" transform="translate(0.422363 0.342529)"/>
</clipPath>
</defs>
</svg>
