<svg width="40" height="40" viewBox="0 0 64 61" fill="none" xmlns="http://www.w3.org/2000/svg">
<g clip-path="url(#clip0_3_3136)" filter="url(#filter0_d_3_3136)">
<path d="M21.2763 46.5426H43.8549C46.5451 46.5426 48.7329 44.3572 48.7329 41.6645V35.8548L54.9597 38.967C55.3036 39.1402 55.6767 39.2255 56.0499 39.2255C56.4963 39.2255 56.9402 39.1011 57.3328 38.8621C58.0499 38.4158 58.4889 37.6328 58.4889 36.7865V22.1524C58.4889 21.3061 58.0499 20.5232 57.3328 20.0768C56.6133 19.6305 55.7133 19.5939 54.9597 19.9695L48.7329 23.0841V19.0859L21.2763 46.5426ZM34.7266 12.3964H14.5868C11.8965 12.3964 9.70874 14.5842 9.70874 17.2744V37.4143L34.7266 12.3964Z" fill="white"/>
<path d="M49.6663 4.04923L4.82568 48.8899L8.27496 52.3392L53.1156 7.49851L49.6663 4.04923Z" fill="#ed4245"/>
</g>
<defs>
<filter id="filter0_d_3_3136" x="0.825684" y="0.201569" width="66.5361" height="66.5363" filterUnits="userSpaceOnUse" color-interpolation-filters="sRGB">
<feFlood flood-opacity="0" result="BackgroundImageFix"/>
<feColorMatrix in="SourceAlpha" type="matrix" values="0 0 0 0 0 0 0 0 0 0 0 0 0 0 0 0 0 0 127 0" result="hardAlpha"/>
<feOffset dy="4"/>
<feGaussianBlur stdDeviation="2"/>
<feComposite in2="hardAlpha" operator="out"/>
<feColorMatrix type="matrix" values="0 0 0 0 0 0 0 0 0 0 0 0 0 0 0 0 0 0 0.25 0"/>
<feBlend mode="normal" in2="BackgroundImageFix" result="effect1_dropShadow_3_3136"/>
<feBlend mode="normal" in="SourceGraphic" in2="effect1_dropShadow_3_3136" result="shape"/>
</filter>
<clipPath id="clip0_3_3136">
<rect width="58.5363" height="58.5363" fill="white" transform="translate(4.82568 0.201569)"/>
</clipPath>
</defs>
</svg>
