<svg width="24" height="24" viewBox="0 0 48 44" fill="none" xmlns="http://www.w3.org/2000/svg">
<path d="M24.0496 0.210866C23.1249 -0.164123 22.0618 0.0428518 21.3547 0.73926L10.7404 12.1983H3.32304C1.96319 12.1983 0.850586 13.2965 0.850586 14.6333V29.2433C0.850586 30.5825 1.96319 31.6783 3.32304 31.6783H10.7404L21.3547 43.1422C22.0618 43.8386 23.1249 44.0481 24.0496 43.6706C24.9743 43.2932 25.5751 42.4044 25.5751 41.4183V2.45837C25.5751 1.47706 24.9743 0.583421 24.0496 0.210866Z" fill="#99AAB5"/>
<path d="M30.52 4.89188V9.76187C37.3366 9.76187 42.8823 15.226 42.8823 21.9368C42.8823 28.6501 37.3366 34.1118 30.52 34.1118V38.9818C40.0637 38.9818 47.8272 31.3384 47.8272 21.9368C47.8272 12.5402 40.0637 4.89188 30.52 4.89188Z" fill="#99AAB5"/>
<path d="M37.9374 21.9373C37.9374 17.9122 34.6095 14.6323 30.52 14.6323V19.5023C31.8823 19.5023 32.9925 20.5956 32.9925 21.9373C32.9925 23.279 31.8823 24.3723 30.52 24.3723V29.2423C34.6095 29.2423 37.9374 25.9672 37.9374 21.9373Z" fill="#99AAB5"/>
</svg>
