<svg width="20" height="20" viewBox="0 0 54 52" fill="none" xmlns="http://www.w3.org/2000/svg">
<path d="M50.2808 0.289291L53.7411 3.79612L48.1321 9.48292L53.7411 15.1697L50.2808 18.6765L44.6693 12.9897L39.0602 18.6765L35.5974 15.1697L41.2089 9.48292L35.5974 3.79612L39.0602 0.289291L44.6693 5.9761L50.2808 0.289291ZM20.1972 31.8036C25.5934 31.8036 29.9862 27.3518 29.9862 21.8833C29.9862 16.4147 25.5934 11.963 20.1972 11.963C14.801 11.963 10.4083 16.4147 10.4083 21.8833C10.4083 27.3518 14.801 31.8036 20.1972 31.8036ZM20.1972 34.2836C8.66829 34.2836 0.619385 40.402 0.619385 49.1641V51.6441H39.7751V49.1641C39.7751 40.402 31.7262 34.2836 20.1972 34.2836Z" fill="#99AAB5"/>
</svg>
