<svg width="20" height="20" viewBox="0 0 47 47" fill="none" xmlns="http://www.w3.org/2000/svg">
<path d="M21.9816 5.39648V0.518463C35.2968 0.518463 46.1253 11.4599 46.1253 24.9086H41.2966C41.2966 14.1501 32.6314 5.39648 21.9816 5.39648ZM36.4678 24.9086H31.6391C31.6391 19.5306 27.3077 15.1525 21.9816 15.1525V10.2745C29.9707 10.2745 36.4678 16.8379 36.4678 24.9086ZM21.9816 20.0305V24.9086H26.8103C26.8103 22.2159 24.6494 20.0305 21.9816 20.0305ZM29.2247 32.2256H38.8822C40.2173 32.2256 41.2966 33.3158 41.2966 34.6646V44.4207C41.2966 45.7694 40.2173 46.8597 38.8822 46.8597H26.8103C12.143 46.8597 0.252197 34.8475 0.252197 20.0305V7.83549C0.252197 6.48672 1.33384 5.39648 2.66657 5.39648H12.3241C13.6592 5.39648 14.7384 6.48672 14.7384 7.83549V17.5915C14.7384 18.9403 13.6592 20.0305 12.3241 20.0305H9.90969C10.0618 29.6354 17.1528 37.1036 26.8103 37.1036V34.6646C26.8103 33.3158 27.8895 32.2256 29.2247 32.2256Z" fill="#dcddde"/>
</svg>
