<svg width="32" height="32" viewBox="0 0 69 67" fill="none" xmlns="http://www.w3.org/2000/svg">
<path d="M11.5133 11.2699C11.5133 11.2699 12.3511 10.071 12.6985 9.53992C13.046 9.0088 11.7991 7.75398 11.3152 7.35642C10.8314 6.95885 10.0683 7.15764 10.0683 7.15764C3.97993 9.7387 0.934102 15.0344 0.518466 16.0935C0.102831 17.1527 1.57704 18.3081 2.66483 18.8734C3.1649 19.1343 3.96045 18.5566 4.45077 18.1279L4.61637 17.9664L4.8729 17.7179L4.87614 17.7148L21.4399 33.4963L23.7031 31.3314L27.8627 27.3527L11.4906 11.2917L11.5133 11.2699Z" fill="#5865F2"/>
<path d="M50.6438 27.9175L51.5173 27.1224L59.3657 34.5581C59.4209 34.6047 59.4793 34.6233 59.5313 34.6233C59.6806 34.6233 59.804 34.4928 59.804 34.4928C59.804 34.4928 68.4934 26.2465 68.5226 26.2185C68.7792 25.9763 68.5226 25.8427 68.5226 25.8427L61.8205 19.3885L61.8108 19.3978L60.8918 18.5375L61.4049 18.0654L62.5024 18.1865L62.2946 16.795L62.5706 16.5279L62.1582 14.5215C60.7262 12.5802 56.8037 9.47114 56.8037 9.47114L54.7515 9.11706L54.5436 9.38107L52.998 9.16055L53.1474 10.4216L53.2448 10.5147L52.7869 10.9558L50.2542 8.58594C50.2542 8.58594 35.5575 0.951463 34.775 0.597383C34.3334 0.401706 34.0087 0.271255 33.6969 0.271255C33.4566 0.271255 33.2228 0.348905 32.9533 0.532157C32.3299 0.951463 32.6968 1.79629 32.6968 1.79629L41.8343 17.9473L43.6624 19.6805L43.0909 20.2271L42.8799 20.429L41.4186 20.2364L41.6427 21.6217L41.2206 22.0255L41.1459 21.954C41.0777 21.8888 40.9835 21.8547 40.8926 21.8547C40.8017 21.8547 40.7108 21.8888 40.6393 21.954C40.4997 22.0876 40.4997 22.305 40.6393 22.4386L40.714 22.51L40.5127 22.7057L40.4607 22.6529C40.3893 22.5877 40.2984 22.5535 40.2075 22.5535C40.1133 22.5535 40.0224 22.5877 39.9542 22.6529C39.8146 22.7864 39.8146 23.0039 39.9542 23.1374L40.0094 23.1902L36.1648 26.8863L36.0771 26.8025C36.0056 26.7372 35.9147 26.7031 35.8238 26.7031C35.7329 26.7031 35.642 26.7372 35.5705 26.8025C35.4309 26.936 35.4309 27.1534 35.5705 27.287L35.6614 27.3709L35.4569 27.5665L35.3887 27.5044C35.3205 27.4361 35.2263 27.4019 35.1387 27.4019C35.0445 27.4019 34.9536 27.4361 34.8821 27.5044C34.7458 27.638 34.7458 27.8523 34.8821 27.9858L34.9503 28.0511L34.4503 28.5356L34.3821 29.1506L34.6451 29.4084L34.6386 29.4115L34.3204 29.7221L13.5743 49.563L13.3048 49.3487L12.4443 49.4667L11.9572 49.9388L11.9248 49.9078C11.8533 49.8395 11.7624 49.8053 11.6715 49.8053C11.5806 49.8053 11.4864 49.8395 11.4182 49.9078C11.2786 50.0413 11.2786 50.2556 11.4182 50.3892L11.4572 50.4265L11.2559 50.6253L11.2364 50.6066C11.1682 50.5383 11.074 50.5041 10.9831 50.5041C10.8922 50.5041 10.8013 50.5383 10.7298 50.6066C10.5934 50.7402 10.5934 50.9545 10.7298 51.0881L10.7525 51.1129L6.95663 54.8059L6.8787 54.7314C6.80726 54.663 6.71958 54.632 6.62542 54.632C6.5345 54.632 6.44358 54.663 6.37214 54.7314C6.23251 54.8649 6.23251 55.0823 6.37214 55.2159L6.45657 55.2935L6.25524 55.4892L6.19355 55.4302C6.12211 55.365 6.03119 55.3308 5.93702 55.3308C5.84935 55.3308 5.75518 55.365 5.68699 55.4302C5.54736 55.5638 5.54736 55.7812 5.68699 55.9147L5.75193 55.98L5.46943 56.2564L3.99847 56.0048L4.10887 57.5764L3.64453 58.0299L4.04718 60.1482C4.04718 60.1482 4.66414 61.9931 5.93377 63.2169C7.16444 64.4034 9.0413 64.9717 9.12248 65.0308L11.2429 65.3848L11.7657 64.8941L13.2269 65.1208L12.9866 63.7387L13.4314 63.3225L13.636 63.5182C13.7042 63.5834 13.7951 63.6175 13.8861 63.6175C13.977 63.6175 14.0711 63.5834 14.1393 63.5182C14.279 63.3815 14.279 63.1672 14.1393 63.0336L13.938 62.841L14.1458 62.6485L14.3212 62.8162C14.3894 62.8845 14.4835 62.9187 14.5744 62.9187C14.6654 62.9187 14.7563 62.8845 14.8277 62.8162C14.9674 62.6826 14.9674 62.4683 14.8277 62.3348L14.6556 62.1671L18.51 58.53L18.6788 58.6915C18.747 58.7598 18.8412 58.7909 18.9321 58.7909C19.023 58.7909 19.114 58.7598 19.1854 58.6915C19.3218 58.5579 19.3218 58.3405 19.1854 58.2069L19.0198 58.0516L19.2244 57.856L19.3672 57.9926C19.4354 58.0579 19.5264 58.092 19.6173 58.092C19.7114 58.092 19.8024 58.0579 19.8706 57.9926C20.0102 57.8591 20.0102 57.6417 19.8706 57.5081L19.7309 57.3745L20.1628 56.9708L20.3187 56.0856L20.0881 55.865L20.0914 55.8619L20.5102 55.4644L41.1167 35.7477L41.1069 35.729L41.5096 36.1266L42.1558 36.0583L42.737 35.4992L42.8312 35.5893C42.9026 35.6545 42.9935 35.6886 43.0844 35.6886C43.1754 35.6886 43.2695 35.6545 43.3377 35.5893C43.4773 35.4557 43.4773 35.2383 43.3377 35.1047L43.2435 35.0147L43.4481 34.8221L43.5196 34.8904C43.5877 34.9556 43.6787 34.9898 43.7728 34.9898C43.8638 34.9898 43.9547 34.9556 44.0229 34.8904C44.1625 34.7569 44.1625 34.5394 44.0229 34.4059L43.9514 34.3344L47.8026 30.6445L47.9032 30.7408C47.9714 30.8061 48.0623 30.8402 48.1532 30.8402C48.2474 30.8402 48.3383 30.8061 48.4065 30.7408C48.5462 30.6073 48.5462 30.3899 48.4065 30.2563L48.3059 30.16L48.5104 29.9643L48.5884 30.042C48.6598 30.1072 48.7507 30.1414 48.8416 30.1414C48.9326 30.1414 49.0235 30.1072 49.0949 30.042C49.2345 29.9053 49.2345 29.691 49.0949 29.5575L49.017 29.4798L49.4456 29.0698L50.8776 29.2841L50.6438 27.9175Z" fill="#5865F2"/>
<path d="M53.5052 50.2027L44.371 43.5807L42.7441 41.9781L36.4414 48.0067L38.026 49.4541L43.978 57.9924L52.005 66.4003L61.2561 58.1446L53.5052 50.2027Z" fill="#5865F2"/>
</svg>
