<svg width="27" height="22" viewBox="0 0 27 22" fill="none" xmlns="http://www.w3.org/2000/svg">
<path d="M22.9994 2.56968C21.3058 1.77731 19.4949 1.20141 17.6017 0.873535C17.3692 1.29389 17.0976 1.85928 16.9103 2.30906C14.8978 2.0064 12.9037 2.0064 10.9282 2.30906C10.741 1.85928 10.4631 1.29389 10.2286 0.873535C8.3333 1.20141 6.52036 1.77941 4.82677 2.57388C1.41078 7.73589 0.484762 12.7697 0.947773 17.732C3.21344 19.424 5.40913 20.4517 7.56779 21.1243C8.10076 20.3908 8.57612 19.611 8.98563 18.7892C8.20571 18.4929 7.45872 18.1271 6.75289 17.7026C6.94015 17.5639 7.1233 17.4188 7.30027 17.2696C11.6052 19.2831 16.2827 19.2831 20.5362 17.2696C20.7152 17.4188 20.8984 17.5639 21.0836 17.7026C20.3757 18.1292 19.6266 18.495 18.8467 18.7913C19.2562 19.611 19.7295 20.3929 20.2646 21.1264C22.4253 20.4538 24.623 19.4261 26.8887 17.732C27.432 11.9794 25.9606 6.99185 22.9994 2.56968ZM9.57211 14.6802C8.2798 14.6802 7.22002 13.4738 7.22002 12.0046C7.22002 10.5355 8.25716 9.32694 9.57211 9.32694C10.8871 9.32694 11.9468 10.5334 11.9242 12.0046C11.9263 13.4738 10.8871 14.6802 9.57211 14.6802ZM18.2644 14.6802C16.972 14.6802 15.9123 13.4738 15.9123 12.0046C15.9123 10.5355 16.9494 9.32694 18.2644 9.32694C19.5793 9.32694 20.6391 10.5334 20.6164 12.0046C20.6164 13.4738 19.5793 14.6802 18.2644 14.6802Z" fill="white"/>
</svg>