<svg width="16" height="16" viewBox="0 0 35 49" fill="none" xmlns="http://www.w3.org/2000/svg">
<path d="M29.799 22.1377V12.3977C29.799 5.68447 24.3373 0.222778 17.6241 0.222778C10.9108 0.222778 5.44909 5.68447 5.44909 12.3977V22.1377C2.76329 22.1377 0.579102 24.3195 0.579102 27.0077V44.0527C0.579102 46.7385 2.76329 48.9227 5.44909 48.9227H29.799C32.4848 48.9227 34.669 46.7385 34.669 44.0527V27.0077C34.669 24.3195 32.4848 22.1377 29.799 22.1377ZM17.6241 39.1827C15.6079 39.1827 13.9716 37.5464 13.9716 35.5302C13.9716 33.514 15.6055 31.8777 17.6241 31.8777C19.6427 31.8777 21.2766 33.514 21.2766 35.5302C21.2766 37.5464 19.6402 39.1827 17.6241 39.1827ZM24.9291 22.1377H10.3191V12.3977C10.3191 8.37027 13.5966 5.09277 17.6241 5.09277C21.6515 5.09277 24.9291 8.37027 24.9291 12.3977V22.1377Z" fill="#99AAB5"/>
</svg>
