<svg width="12" height="17" viewBox="0 0 12 17" fill="none" xmlns="http://www.w3.org/2000/svg">
<path fill-rule="evenodd" clip-rule="evenodd" d="M8.56286 8.05263C8.56286 9.5379 7.42286 10.7368 6 10.7368C4.57714 10.7368 3.42857 9.5379 3.42857 8.05263V2.68421C3.42857 1.19895 4.57714 0 6 0C7.42286 0 8.57143 1.19895 8.57143 2.68421L8.56286 8.05263ZM6 12.6158C8.36571 12.6158 10.5429 10.7368 10.5429 8.05263H12C12 11.1126 9.66857 13.6358 6.85714 14.0653V17H5.14286V14.0653C2.33143 13.6268 0 11.1037 0 8.05263H1.45714C1.45714 10.7368 3.63429 12.6158 6 12.6158Z" fill="#C7C9CB"/>
</svg>
