<svg width="20" height="20" viewBox="0 0 52 52" fill="none" xmlns="http://www.w3.org/2000/svg">
<path d="M47.1732 0.923401L51.4829 5.23557L43.883 12.8355L51.4829 20.4355L47.1732 24.7476L39.5708 17.1477L31.9708 24.7476L27.6611 20.4355L35.2611 12.8355L27.6611 5.23557L31.9708 0.923401L39.5708 8.52336L47.1732 0.923401ZM39.571 51.8596H27.376C12.559 51.8596 0.546875 39.8475 0.546875 25.0305V12.8355C0.546875 11.4867 1.63955 10.3964 2.98588 10.3964H12.7419C14.0907 10.3964 15.1809 11.4867 15.1809 12.8355V22.5915C15.1809 23.9403 14.0907 25.0305 12.7419 25.0305H10.3029C10.4566 34.6353 17.6199 42.1036 27.376 42.1036V39.6646C27.376 38.3158 28.4662 37.2256 29.815 37.2256H39.571C40.9198 37.2256 42.01 38.3158 42.01 39.6646V49.4206C42.01 50.7694 40.9198 51.8596 39.571 51.8596Z" fill="#99AAB5"/>
</svg>
