<svg width="16" height="16" viewBox="0 0 59 59" fill="none" xmlns="http://www.w3.org/2000/svg">
<path d="M17.7033 44.1034C17.7033 42.4849 16.6546 41.1766 15.3624 41.1766H8.33708C7.04487 41.1766 5.99609 42.4849 5.99609 44.1034V49.957C5.99609 51.5756 7.04487 52.8839 8.33708 52.8839H15.36C16.6522 52.8839 17.701 51.5756 17.701 49.957V44.1034H17.7033Z" fill="#3BA55C"/>
<path d="M35.2663 26.2767C35.2663 24.8052 34.2173 23.616 32.9249 23.616H25.9005C24.6081 23.616 23.5591 24.8052 23.5591 26.2767V50.2233C23.5591 51.6948 24.6081 52.8841 25.9005 52.8841H32.9249C34.2173 52.8841 35.2663 51.6948 35.2663 50.2233V26.2767Z" fill="#3BA55C"/>
<path d="M52.8274 8.65649C52.8274 7.21779 51.7784 6.05487 50.4859 6.05487H43.4616C42.1691 6.05487 41.1201 7.21779 41.1201 8.65649V50.2822C41.1201 51.721 42.1691 52.8839 43.4616 52.8839H50.4859C51.7784 52.8839 52.8274 51.721 52.8274 50.2822V8.65649Z" fill="#3BA55C"/>
</svg>
