<svg width="20" height="20" viewBox="0 0 49 49" fill="none" xmlns="http://www.w3.org/2000/svg">
<path d="M48.5675 45.2503L35.4139 31.9638C38.07 28.5246 39.5261 24.3241 39.5261 19.892C39.5261 14.6272 37.4944 9.6777 33.8091 5.95759C30.1262 2.23255 25.2262 0.1828 20.014 0.1828C14.8019 0.1828 9.90189 2.23255 6.21899 5.95759C2.53365 9.6777 0.501953 14.6272 0.501953 19.892C0.501953 25.1568 2.53365 30.1063 6.21899 33.8264C9.90189 37.5514 14.8019 39.6012 20.014 39.6012C24.4018 39.6012 28.5603 38.1328 31.9652 35.4474L45.1187 48.7314L48.5675 45.2503ZM20.014 34.6739C16.1043 34.6739 12.4311 33.1365 9.66775 30.3452C6.90191 27.5539 5.37997 23.8412 5.37997 19.892C5.37997 15.9452 6.90191 12.2325 9.66775 9.44118C12.4311 6.64741 16.1043 5.11009 20.014 5.11009C23.9238 5.11009 27.5969 6.64741 30.3603 9.44118C33.1261 12.2325 34.6481 15.9452 34.6481 19.892C34.6481 23.8412 33.1261 27.5539 30.3603 30.3452C27.5969 33.1365 23.9238 34.6739 20.014 34.6739Z" fill="#99AAB5"/>
</svg>
