<svg width="12" height="12" viewBox="0 0 16 16" fill="none" xmlns="http://www.w3.org/2000/svg">
<path fill-rule="evenodd" clip-rule="evenodd" d="M14.1904 6.4H16V9.6H14.1912C13.9984 10.3448 13.68 11.0384 13.252 11.6512L14.4 12.8L12.8 14.4L11.652 13.2512C11.0376 13.6792 10.3456 13.9984 9.6 14.1904V16H6.4V14.1904C5.6552 13.9984 4.9624 13.6792 4.3488 13.2512L3.2 14.4L1.6 12.8L2.7488 11.6512C2.3208 11.0392 2.0016 10.3456 1.8096 9.6H0V6.4H1.8096C2.0016 5.6544 2.32 4.9616 2.7488 4.3488L1.6 3.2L3.2 1.6L4.3488 2.7488C4.9616 2.32 5.6544 2.0016 6.4 1.8096V0H9.6V1.8088C10.3456 2.0016 11.0376 2.32 11.652 2.748L12.8 1.5992L14.4 3.1992L13.2512 4.3488C13.6792 4.9616 13.9984 5.6552 14.1904 6.4ZM8 11.2C9.76728 11.2 11.2 9.76728 11.2 8C11.2 6.23269 9.76728 4.8 8 4.8C6.23269 4.8 4.8 6.23269 4.8 8C4.8 9.76728 6.23269 11.2 8 11.2Z" fill="#C7C9CB"/>
</svg>
