<svg width="20" height="20" viewBox="0 0 61 59" fill="none" xmlns="http://www.w3.org/2000/svg">
<path d="M53.9261 20.0768C53.1969 19.6305 52.2848 19.5939 51.521 19.9695L45.2104 23.0841V17.2744C45.2104 14.5842 42.9931 12.3964 40.2667 12.3964H10.6044C7.8779 12.3964 5.66064 14.5842 5.66064 17.2744V41.6645C5.66064 44.3572 7.8779 46.5426 10.6044 46.5426H40.2667C42.9931 46.5426 45.2104 44.3572 45.2104 41.6645V35.8548L51.521 38.967C51.8696 39.1402 52.2477 39.2255 52.6259 39.2255C53.0783 39.2255 53.5282 39.1011 53.9261 38.8621C54.6529 38.4158 55.0978 37.6328 55.0978 36.7865V22.1524C55.0978 21.3061 54.6529 20.5232 53.9261 20.0768Z" fill="white"/>
</svg>
