<svg width="24" height="24" viewBox="0 0 50 50" fill="none" xmlns="http://www.w3.org/2000/svg">
<path d="M25.055 0.424652C11.609 0.424652 0.705078 11.4938 0.705078 25.1492C0.705078 38.7996 11.609 49.8738 25.055 49.8738C38.5011 49.8738 49.405 38.7996 49.405 25.1492C49.405 11.4938 38.5011 0.424652 25.055 0.424652ZM17.75 12.7869C20.4383 12.7869 22.62 14.9998 22.62 17.7318C22.62 20.4614 20.4383 22.6768 17.75 22.6768C15.0618 22.6768 12.88 20.4614 12.88 17.7318C12.88 14.9998 15.0618 12.7869 17.75 12.7869ZM25.055 42.4564C19.2329 42.4564 13.8833 39.6576 10.4451 35.1429L14.2412 31.2933C16.6665 34.8412 20.6623 37.0912 25.055 37.0912C29.4599 37.0912 33.4484 34.8388 35.8737 31.2809L39.665 35.1355C36.2316 39.6526 30.8893 42.4564 25.055 42.4564ZM39.665 20.2043H29.925V15.2594H39.665V20.2043Z" fill="#FBB848"/>
</svg>
