<svg width="24" height="24" viewBox="0 0 59 60" fill="none" xmlns="http://www.w3.org/2000/svg">
<g clip-path="url(#clip0_3_1920)">
<path d="M29.4852 5.42465C16.0392 5.42465 5.13525 16.4938 5.13525 30.1492C5.13525 43.7996 16.0392 54.8738 29.4852 54.8738C42.9312 54.8738 53.8351 43.7996 53.8351 30.1492C53.8351 16.4938 42.9312 5.42465 29.4852 5.42465ZM34.3552 15.3145H39.2252V25.2043H34.3552V15.3145ZM19.7452 15.3145H24.6152V25.2043H19.7452V15.3145ZM44.0952 35.0941C44.0952 41.5645 37.1311 47.4564 29.4852 47.4564C21.8393 47.4564 14.8752 41.5645 14.8752 35.0941V32.6217H44.0952V35.0941Z" fill="#99AAB5"/>
</g>
<!-- <defs>
<clipPath id="clip0_3_1920">
<rect width="24" height="24" fill="white" transform="translate(0.265625 0.473694)"/>
</clipPath>
</defs> -->
</svg>
