<svg width="14" height="14" viewBox="0 0 60 60" fill="none" xmlns="http://www.w3.org/2000/svg">
<path d="M50.4954 20.5505C51.3423 20.0347 52.4167 20.0867 53.2122 20.6844C54.0051 21.2846 54.367 22.3064 54.1299 23.2786L49.2352 43.1193C48.9614 44.2253 47.9824 44.9991 46.8591 44.9991H12.5979C11.4747 44.9991 10.4957 44.2227 10.2217 43.1193L5.32722 23.2786C5.08986 22.3064 5.45203 21.2846 6.24493 20.6844C7.04274 20.0892 8.11463 20.0371 8.9638 20.5505L19.2005 26.7755L27.6948 13.8617C27.7529 13.7735 27.8338 13.7152 27.915 13.6568C27.9638 13.6216 28.0129 13.5863 28.057 13.5443L25.7003 11.1535C25.2256 10.6724 25.2256 9.88121 25.7003 9.40009L28.8646 6.19336C29.3394 5.71224 30.12 5.71224 30.5948 6.19336L33.7591 9.40009C34.2338 9.88121 34.2338 10.6724 33.7591 11.1535L31.4024 13.5443C31.4465 13.5871 31.4964 13.623 31.5464 13.659C31.6267 13.7167 31.7073 13.7746 31.7646 13.8617L40.2589 26.7755L50.4954 20.5505ZM10.151 47.4789H49.3064V52.4393H10.151V47.4789Z" fill="#FBB848"/>
</svg>
