<svg width="18" height="18" viewBox="0 0 49 45" fill="none" xmlns="http://www.w3.org/2000/svg">
<path d="M10.1783 44.0555C9.42206 44.0555 8.84944 43.3699 8.9816 42.6228L10.454 34.2994H2.17741C1.42235 34.2994 0.850045 33.616 0.98019 32.8697L1.40558 30.4307C1.50736 29.8473 2.01238 29.4214 2.6028 29.4214H11.3048L13.8815 14.7874H5.60483C4.84978 14.7874 4.27747 14.1039 4.40762 13.3576L4.83301 10.9186C4.93478 10.3351 5.43981 9.90933 6.03022 9.90933H14.7322L16.2801 1.15967C16.3831 0.577458 16.8875 0.15329 17.4768 0.15329H19.8696C20.6257 0.15329 21.1984 0.838822 21.0662 1.58592L19.5938 9.90933H34.1786L35.7265 1.15967C35.8294 0.577458 36.3338 0.15329 36.9232 0.15329H39.3159C40.0721 0.15329 40.6448 0.838822 40.5126 1.58592L39.0402 9.90933H47.3168C48.0718 9.90933 48.6443 10.5928 48.514 11.3391L48.0886 13.7781C47.987 14.3616 47.4819 14.7874 46.8915 14.7874H38.1894L35.6128 29.4214H43.8894C44.6444 29.4214 45.2169 30.1048 45.0866 30.8512L44.6612 33.2902C44.5596 33.8736 44.0545 34.2994 43.464 34.2994H34.762L33.2141 43.0491C33.1113 43.6313 32.6069 44.0555 32.0174 44.0555H29.6248C28.8685 44.0555 28.2958 43.3699 28.4281 42.6228L29.9004 34.2994H15.3156L13.7678 43.0491C13.6648 43.6313 13.1604 44.0555 12.5711 44.0555H10.1783ZM18.7441 14.7874L16.1675 29.4214H30.7522L33.3288 14.7874H18.7441Z" fill="#99AAB5"/>
</svg>
