<svg width="20" height="20" viewBox="0 0 45 11" fill="none" transform="rotate(90)" xmlns="http://www.w3.org/2000/svg">
<path d="M10.649 5.82112C10.649 3.09976 8.48705 0.893799 5.8202 0.893799C3.15336 0.893799 0.991455 3.09976 0.991455 5.82112C0.991455 8.54223 3.15336 10.7484 5.8202 10.7484C8.48705 10.7484 10.649 8.54223 10.649 5.82112ZM27.5496 5.82112C27.5496 3.09976 25.3877 0.893799 22.7208 0.893799C20.0539 0.893799 17.8921 3.09976 17.8921 5.82112C17.8921 8.54223 20.0539 10.7484 22.7208 10.7484C25.3877 10.7484 27.5496 8.54223 27.5496 5.82112ZM39.6214 0.893799C42.2884 0.893799 44.4502 3.09976 44.4502 5.82112C44.4502 8.54223 42.2884 10.7484 39.6214 10.7484C36.9545 10.7484 34.7927 8.54223 34.7927 5.82112C34.7927 3.09976 36.9545 0.893799 39.6214 0.893799Z" fill="#99AAB5"/>
</svg>
