<svg width="24" height="24" viewBox="0 0 61 60" fill="none" xmlns="http://www.w3.org/2000/svg">
<path d="M43.7382 22.8881L42.8444 27.8636H37.8855L38.7793 22.8881L23.8944 22.8874L21.2655 37.5215H26.7453V42.3995H20.3964L18.8172 51.1492C18.7121 51.7314 18.1975 52.1555 17.5962 52.1555H15.1549C14.3834 52.1555 13.7991 51.4702 13.934 50.7228L15.4362 42.3995H6.99185C6.22149 42.3995 5.63758 41.7161 5.77036 40.9697L6.20437 38.5307C6.30822 37.9473 6.82347 37.5215 7.42586 37.5215H16.3043L18.9331 22.8874H10.4887C9.71839 22.8874 9.13448 22.204 9.26726 21.4577L9.70127 19.0187C9.80511 18.4352 10.3204 18.0094 10.9228 18.0094H19.8012L21.3804 9.25977C21.4855 8.67758 22.0001 8.25339 22.6013 8.25339H25.0426C25.8141 8.25339 26.3984 8.93892 26.2635 9.68604L24.7613 18.0094L39.6461 18.01L41.2253 9.26039C41.3304 8.6782 41.845 8.25401 42.4462 8.25401H44.8875C45.659 8.25401 46.2433 8.93954 46.1084 9.68666L44.6062 18.01H53.0506C53.821 18.01 54.4049 18.6935 54.2721 19.4398L53.8381 21.8788C53.7342 22.4623 53.219 22.8881 52.6166 22.8881H43.7382Z" fill="#99AAB5"/>
<path d="M33.8938 32.5465C32.5789 32.5465 31.5129 33.5948 31.5129 34.8879V50.2569C31.5129 51.5501 32.5789 52.5984 33.8938 52.5984H36.2747C36.6035 52.5984 36.8699 52.8603 36.8699 53.1837V58.1554C36.8699 58.6627 37.4815 58.9301 37.8642 58.5898L43.928 53.2023C44.3654 52.8135 44.9344 52.5984 45.5241 52.5984H56.5121C57.827 52.5984 58.893 51.5501 58.893 50.2569V34.8879C58.893 33.5948 57.827 32.5465 56.5121 32.5465H33.8938Z" fill="#99AAB5"/>
</svg>
